<?xml version="1.0" encoding="utf-8"?>
<!-- Generator: Adobe Illustrator 16.0.2, SVG Export Plug-In . SVG Version: 6.00 Build 0)  -->
<!DOCTYPE svg PUBLIC "-//W3C//DTD SVG 1.1//EN" "http://www.w3.org/Graphics/SVG/1.1/DTD/svg11.dtd">
<svg version="1.1" id="Warstwa_1" xmlns="http://www.w3.org/2000/svg" xmlns:xlink="http://www.w3.org/1999/xlink" x="0px" y="0px"
	 width="296px" height="251px" viewBox="18.14 10.444 296 251" enable-background="new 18.14 10.444 296 251" xml:space="preserve">
<ellipse fill="#390411" cx="166" cy="154.002" rx="32.333" ry="22.667"/>
<ellipse fill="#118E36" stroke="#000000" stroke-miterlimit="10" cx="166" cy="118.5" rx="142" ry="38.5"/>
<rect x="24" y="60.667" fill="#118E36" width="284" height="57.833"/>
<ellipse fill="#118E36" stroke="#000000" stroke-width="5" stroke-miterlimit="10" cx="166" cy="58.5" rx="142" ry="38.5"/>
<line fill="none" stroke="#000000" stroke-miterlimit="10" x1="24" y1="58.5" x2="24" y2="118.5"/>
<line fill="none" stroke="#000000" stroke-miterlimit="10" x1="308" y1="58.5" x2="308" y2="118.5"/>
<ellipse fill="#390411" cx="166" cy="179.667" rx="32.333" ry="22.667"/>
<ellipse fill="#390411" cx="166" cy="204.336" rx="32.333" ry="22.667"/>
<path fill="#390411" d="M232.542,229.711c0,5.034,5.235,5.906,2.708,10.039c-3.023,4.944,16.31,10.431,10.75,13.125
	c-4.664,2.261-19.438,1.875-25.125,1.875c-4.99,0-5.39-8.855-9.625-10.625c-5.6-2.339-1.505-1.729-6.375-4.625
	c-4.625-2.75-4.894,6.504-9.625,3.125c-3.5-2.5-9.165-5.797-7.25-9.5c1.783-3.446-11.198-16.061-8.125-18.625
	c5.875-4.903,11.137-13.956,19.834-13.956c3.944,0,1.788,13.198,5.291,14.331c5.421,1.753,9.217,4.413,12.875,8.25
	C222.722,228.207,232.542,222.529,232.542,229.711z"/>
<path fill="#390411" d="M100.263,229.054c0,5.034-5.235,5.906-2.708,10.039c3.023,4.944-16.31,10.431-10.75,13.125
	c4.664,2.261,19.438,1.875,25.125,1.875c4.99,0,5.39-8.854,9.625-10.625c5.6-2.339,1.505-1.729,6.375-4.625
	c4.625-2.75,4.894,6.504,9.625,3.125c3.5-2.5,9.165-5.797,7.25-9.5c-1.783-3.446,11.198-16.061,8.125-18.625
	c-5.875-4.903-11.137-13.956-19.834-13.956c-3.944,0-1.788,13.198-5.291,14.331c-5.421,1.753-9.217,4.413-12.875,8.25
	C110.083,227.55,100.263,221.872,100.263,229.054z"/>
</svg>
